<svg xmlns="http://www.w3.org/2000/svg" viewBox="0 0 629.28 84.36"><defs><style>.a{fill:#005192;}.b{fill:#009fdf;}</style></defs><title>fcgtalent</title><path class="a" d="M0,2H73.38v8.62H9.72V36.1H63.43v8.62H9.72V82.41H0Z"/><path class="a" d="M168,61c-8.62,16.68-23.54,23.32-43.1,23.32C93.74,84.36,79,65.68,79,42.36,79,14.74,97.72,0,124.79,0c17.24,0,34.81,6.63,42,23l-8.4,3.87c-5.63-13.15-18.12-18.67-33.48-18.67C102,8.22,89,20.7,89,43.58,89,62,101.48,75.74,125.79,75.74c15.92,0,27-6.63,33.6-18.9Z"/><path class="a" d="M265.38,43.36V83h-8.61V71.32c-5.42,6.29-14.15,13-32.27,13-31.17,0-45.86-18.68-45.86-42C178.64,14.7,197.31,0,224.39,0c19.12,0,33.81,8.62,39.78,22.1L256,26.45c-6.3-14.37-21.1-18.23-31.93-18.23-22.55,0-35.48,12.48-35.48,35.36,0,18.45,12.49,32.16,36.36,32.16,14.59,0,30.28-7.08,31.61-23.76H224V43.36Z"/><path class="b" d="M330.25,32.2h-23V67.1c0,6.3,2.76,9.39,11.82,9.39,4.31,0,7.85-.77,12.71-1.77v7.74c-6.41,1-10.94,1.65-14.59,1.65C298.3,84.11,298.3,72.62,298.3,68V32.2H286.05V24.57h12.27V5.34h8.95V24.57h23Z"/><path class="b" d="M401.75,73.42a45.36,45.36,0,0,0,1,9h-9a31.91,31.91,0,0,1-1.1-7,51.93,51.93,0,0,1-28.8,8.68c-9.51,0-23.54-2.65-23.54-17.57,0-20,29.95-20.77,52.49-23.42V40.93c0-7.83-9.39-10.83-18.56-10.83-15.37,0-20.78,6.41-23.65,9.72l-6.74-4.64c3.31-4.09,9.61-12.38,29.72-12.38,13.15,0,28.18,3.87,28.18,18.68Zm-8.95-23c-26.3,2.54-44,5-44,16.13,0,9.06,10.17,10.28,14.59,10.28,12.48,0,23.64-6,29.39-9.06Z"/><path class="b" d="M418.11,2h8.95V82.37h-8.95Z"/><path class="b" d="M504.19,70.32c-6,6.3-11.71,13.81-31.38,13.81-19.45,0-32.71-13.26-32.71-30.94,0-18.34,13.81-30.39,31.6-30.39,18.46,0,34.59,9.62,34.15,32.49h-56.8c.88,10.83,9.61,21.22,24.64,21.22s19.89-6.74,23.54-11.27Zm-8.07-22.65c-1.76-9.51-9.94-17.24-23.64-17.24-13.16,0-20.56,6.63-23.1,17.24Z"/><path class="b" d="M518.45,24.57h8.95V33c6.08-5.31,14-10.17,24.31-10.17,7.18,0,23.87,1.66,23.87,21.44V82.37h-9V46c.22-13.7-9.73-15.58-16-15.58-9.84,0-18,6.08-23.21,11.6V82.37h-9Z"/><path class="b" d="M627.74,32.2h-23V67.1c0,6.3,2.77,9.39,11.83,9.39,4.31,0,7.84-.77,12.71-1.77v7.74c-6.41,1-10.94,1.65-14.59,1.65-18.9,0-18.9-11.49-18.9-16.13V32.2H583.54V24.57H595.8V5.34h9V24.57h23Z"/></svg>