<svg xmlns="http://www.w3.org/2000/svg" width="110" height="36.635" viewBox="0 0 110 36.635">
    <defs>
        <style>
            .cls-1{fill:#00565e}.cls-2{fill:#e95d0f}
        </style>
    </defs>
    <g id="logo" transform="translate(-36.85 -510.529)">
        <path id="Path_1" d="M109.956 533.32c-.585.021-.857 0-.912-1.394-.037-.982-.076-2.423.5-2.548.158-.057 10.232-.585 10.869-.608 1.487-.054 1.508.411 1.523.824.049 1.292-.005 12.108-.187 12.891-.177.938-.983 1.008-2.943 1.234-1.217.147-1.863.372-4.745 1.511a19.979 19.979 0 0 1-7.311 1.624 16.128 16.128 0 0 1-16.68-15.739c-.366-9.56 7.065-19.956 23.69-20.558a29.019 29.019 0 0 1 4.983.179c.7.129.771.515.784.826a20.541 20.541 0 0 1-.349 2.506c-.082.625-.354.894-1.045.92-1.221.044-2.4-.189-4.153-.126-4.409.16-8.141.9-11.361 2.927a15.481 15.481 0 0 0-7.235 13.393 11.906 11.906 0 0 0 12.655 11.8 16.693 16.693 0 0 0 8.278-2.649 53.53 53.53 0 0 0 .059-7.378c-1.379.1-5.093.318-6.421.367" class="cls-1" data-name="Path 1" transform="translate(1.298)"/>
        <path id="Path_2" d="M57.979 511.967c-.032-.824-.394-.9-.925-.928-4.5-.108-18.181.411-18.964.577s-.914.221-1.1 1.822-.191 25.369.064 31.764c.1.859.624.881 2.484.772 2.538-.092 2.586-.232 2.619-.749s.055-7.416-.11-15.861c1.454-.053 8.21-.218 10.714-.294 0 0 .9 0 1.045-.313a17.5 17.5 0 0 0-.108-3.323c-.126-.627-1.536-.562-1.536-.562-7.167.262-7.9.379-10.116.56-.053-1.39-.192-9.964-.192-9.964 5.088-.419 14.667-.3 15.037-.31s.962.014 1.054-.349a23.308 23.308 0 0 0 .036-2.841" class="cls-1" data-name="Path 2" transform="translate(0 .012)"/>
        <path id="Path_3" d="M73.4 516.809c1.929-.863 4.15-1.771 9.728-1.771h3.186c1.251 0 1.454-.545 1.4-1-.052-1.167-.19-1.9-.242-2.563s-1.426-.68-4.5-.68a32.975 32.975 0 0 0-12.77 2.6A18.629 18.629 0 0 0 58.64 530.68a16.426 16.426 0 0 0 16.41 16.477 22.123 22.123 0 0 0 10.224-2.439c1.3-.709 2.45-1.265 2.291-2.321a8.786 8.786 0 0 0-1.4-2.4c-.278-.413-.88.112-2.607 1.009a14.977 14.977 0 0 1-7.824 1.849 11.882 11.882 0 0 1-11.451-12.215 15.065 15.065 0 0 1 9.117-13.83" class="cls-1" data-name="Path 3" transform="translate(.532 .006)"/>
        <path id="Path_4" d="M144.576 535.352a7.274 7.274 0 1 1-7.27-7.075 7.175 7.175 0 0 1 7.27 7.075" class="cls-2" data-name="Path 4" transform="translate(2.274 .433)"/>
    </g>
</svg>
