<svg xmlns="http://www.w3.org/2000/svg" viewBox="0 0 614.56 581.42"><defs><style>.cls-1{fill:#fff;}</style></defs><title>simplr_logo_white</title><g id="Layer_1" data-name="Layer 1"><path class="cls-1" d="M875.14,1225q28-15.53,64.35-48.7,32.71-29.87,49.51-53.19t17.4-44.83q.6-21.51-13.8-45.32t-44.25-56.46l-75.57-82.79Q835,852.26,818,815.87t-13.05-72q3.74-33.4,26.28-68.13c-91.2,53-152.48,151.41-152.48,264.06C678.72,1069.74,760.22,1180.71,875.14,1225Z" transform="translate(-678.72 -645.29)"/><path class="cls-1" d="M1068.35,645.29q-23.67,13.56-52.25,39.64-30.95,28.25-47.85,49.67t-19.51,40.76q-2.61,19.36,8.89,40.82T996,867.07l70.6,77.34q39.78,43.56,62,82.17t22.6,76.22q.33,37.67-24.32,78.12-13.25,21.74-34.7,45.79c117.37-43,201.08-155.22,201.08-286.89C1293.28,799.39,1198.06,681.1,1068.35,645.29Z" transform="translate(-678.72 -645.29)"/></g></svg>